<svg width="12" height="13" viewBox="0 0 12 13" fill="none" xmlns="http://www.w3.org/2000/svg">
<path d="M8.80964 3.48467L9.18264 3.11167C9.37787 2.91644 9.69441 2.91644 9.88964 3.11167C10.0849 3.3069 10.0849 3.62344 9.88964 3.81867L9.51664 4.19167C10.2345 5.09025 10.5811 6.22961 10.4852 7.37574C10.3893 8.52187 9.85814 9.58777 9.00089 10.3545C8.14363 11.1213 7.02532 11.5307 5.87563 11.4987C4.72594 11.4667 3.63214 10.9957 2.81888 10.1824C2.00561 9.36917 1.5346 8.27537 1.5026 7.12568C1.47059 5.97599 1.88002 4.85768 2.64678 4.00043C3.41354 3.14317 4.47944 2.61205 5.62557 2.51613C6.7717 2.42021 7.91106 2.76679 8.80964 3.48467ZM6.00064 10.5007C6.46027 10.5007 6.91539 10.4101 7.34003 10.2343C7.76467 10.0584 8.15051 9.80055 8.47551 9.47554C8.80052 9.15054 9.05833 8.7647 9.23422 8.34006C9.41011 7.91542 9.50064 7.4603 9.50064 7.00067C9.50064 6.54104 9.41011 6.08592 9.23422 5.66128C9.05833 5.23664 8.80052 4.8508 8.47551 4.5258C8.15051 4.20079 7.76467 3.94298 7.34003 3.76709C6.91539 3.5912 6.46027 3.50067 6.00064 3.50067C5.07238 3.50067 4.18214 3.86942 3.52577 4.5258C2.86939 5.18218 2.50064 6.07241 2.50064 7.00067C2.50064 7.92893 2.86939 8.81917 3.52577 9.47554C4.18214 10.1319 5.07238 10.5007 6.00064 10.5007ZM5.50064 5.00067C5.50064 4.72453 5.7245 4.50067 6.00064 4.50067C6.27678 4.50067 6.50064 4.72453 6.50064 5.00067V7.00067C6.50064 7.27681 6.27678 7.50067 6.00064 7.50067C5.7245 7.50067 5.50064 7.27681 5.50064 7.00067V5.00067ZM4.00064 1.50067C4.00064 1.22453 4.2245 1.00067 4.50064 1.00067H7.50064C7.77678 1.00067 8.00064 1.22453 8.00064 1.50067C8.00064 1.77681 7.77678 2.00067 7.50064 2.00067H4.50064C4.2245 2.00067 4.00064 1.77681 4.00064 1.50067Z" fill="#0478FA"/>
</svg>
